# xmcd
#
# Track frame offsets:
# 150
# 16176
# 32166
# 51238
# 66236
# 79832
# 97118
# 113667
# 130653
# 146323
# 160057
# 170847
# 188372
#
# Disc length: 2725 seconds
#
#
# Revision: 0
# Processed by: cddbd v1.5.1PL2 Copyright (c) Steve Scherf et al.
# Submitted via: FreeRIP 2.942 
#
DISCID=a50aa30d
DTITLE=Emilio and Eduardo - Peão de Caminhonete
DYEAR=2005
DGENRE=Sertanejo
TTITLE0=Peao de Caminhonete
TTITLE1=Loucamente Apaixonado
TTITLE2=Vai Por Mim
TTITLE3=Da Pa Virada
TTITLE4=Minha Luz
TTITLE5=Vendaval de Ilusoes
TTITLE6=Essa Mulher
TTITLE7=Hey Saudade
TTITLE8=Fungado na Barra
TTITLE9=Promessa Forte
TTITLE10=Fogo Na Botina
TTITLE11=Briguei Por Brigar
TTITLE12=Apaixonado Xonado
EXTD=
EXTT0=
EXTT1=
EXTT2=
EXTT3=
EXTT4=
EXTT5=
EXTT6=
EXTT7=
EXTT8=
EXTT9=
EXTT10=
EXTT11=
EXTT12=
PLAYORDER=
